<mxfile host="app.diagrams.net" modified="2024-01-17T10:36:50.909Z" agent="Mozilla/5.0 (Windows NT 10.0; Win64; x64) AppleWebKit/537.36 (KHTML, like Gecko) Chrome/120.0.0.0 Safari/537.36" etag="yHX9KgBONv1coPVvNmzP" version="22.1.20" type="device" pages="2">
  <diagram name="Halaman-1" id="BGHDOuyp1Qq_2s7RSkKz">
    <mxGraphModel dx="836" dy="434" grid="1" gridSize="10" guides="1" tooltips="1" connect="1" arrows="1" fold="1" page="1" pageScale="1" pageWidth="827" pageHeight="1169" math="0" shadow="0">
      <root>
        <mxCell id="0" />
        <mxCell id="1" parent="0" />
        <mxCell id="HmT_3yzTrvhzJx-XpZF0-5" style="edgeStyle=orthogonalEdgeStyle;rounded=0;orthogonalLoop=1;jettySize=auto;html=1;" edge="1" parent="1" source="HmT_3yzTrvhzJx-XpZF0-2" target="HmT_3yzTrvhzJx-XpZF0-4">
          <mxGeometry relative="1" as="geometry" />
        </mxCell>
        <mxCell id="HmT_3yzTrvhzJx-XpZF0-2" value="&lt;font style=&quot;vertical-align: inherit;&quot;&gt;&lt;font style=&quot;vertical-align: inherit;&quot;&gt;&lt;font style=&quot;vertical-align: inherit;&quot;&gt;&lt;font style=&quot;vertical-align: inherit;&quot;&gt;PRODUKSI&lt;/font&gt;&lt;/font&gt;&lt;br&gt;&lt;/font&gt;&lt;/font&gt;" style="ellipse;whiteSpace=wrap;html=1;" vertex="1" parent="1">
          <mxGeometry x="220" y="50" width="140" height="50" as="geometry" />
        </mxCell>
        <mxCell id="HmT_3yzTrvhzJx-XpZF0-4" value="&lt;font style=&quot;vertical-align: inherit;&quot;&gt;&lt;font style=&quot;vertical-align: inherit;&quot;&gt;MEMBUAT PO&lt;br&gt;&lt;/font&gt;&lt;/font&gt;" style="shape=parallelogram;perimeter=parallelogramPerimeter;whiteSpace=wrap;html=1;fixedSize=1;" vertex="1" parent="1">
          <mxGeometry x="230" y="150" width="120" height="60" as="geometry" />
        </mxCell>
        <mxCell id="HmT_3yzTrvhzJx-XpZF0-9" style="edgeStyle=orthogonalEdgeStyle;rounded=0;orthogonalLoop=1;jettySize=auto;html=1;" edge="1" parent="1" source="HmT_3yzTrvhzJx-XpZF0-6" target="HmT_3yzTrvhzJx-XpZF0-8">
          <mxGeometry relative="1" as="geometry" />
        </mxCell>
        <mxCell id="HmT_3yzTrvhzJx-XpZF0-6" value="&lt;font style=&quot;vertical-align: inherit;&quot;&gt;&lt;font style=&quot;vertical-align: inherit;&quot;&gt;PO&lt;/font&gt;&lt;/font&gt;" style="strokeWidth=2;html=1;shape=mxgraph.flowchart.multi-document;whiteSpace=wrap;" vertex="1" parent="1">
          <mxGeometry x="246" y="250" width="88" height="60" as="geometry" />
        </mxCell>
        <mxCell id="HmT_3yzTrvhzJx-XpZF0-7" style="edgeStyle=orthogonalEdgeStyle;rounded=0;orthogonalLoop=1;jettySize=auto;html=1;entryX=0.5;entryY=0;entryDx=0;entryDy=0;entryPerimeter=0;" edge="1" parent="1" source="HmT_3yzTrvhzJx-XpZF0-4" target="HmT_3yzTrvhzJx-XpZF0-6">
          <mxGeometry relative="1" as="geometry" />
        </mxCell>
        <mxCell id="HmT_3yzTrvhzJx-XpZF0-8" value="&lt;font style=&quot;vertical-align: inherit;&quot;&gt;&lt;font style=&quot;vertical-align: inherit;&quot;&gt;&lt;font style=&quot;vertical-align: inherit;&quot;&gt;&lt;font style=&quot;vertical-align: inherit;&quot;&gt;MEMBUAT MEMO&lt;/font&gt;&lt;/font&gt;&lt;br&gt;&lt;/font&gt;&lt;/font&gt;" style="shape=parallelogram;perimeter=parallelogramPerimeter;whiteSpace=wrap;html=1;fixedSize=1;" vertex="1" parent="1">
          <mxGeometry x="230" y="350" width="120" height="60" as="geometry" />
        </mxCell>
        <mxCell id="HmT_3yzTrvhzJx-XpZF0-14" style="edgeStyle=orthogonalEdgeStyle;rounded=0;orthogonalLoop=1;jettySize=auto;html=1;" edge="1" parent="1" source="HmT_3yzTrvhzJx-XpZF0-10" target="HmT_3yzTrvhzJx-XpZF0-13">
          <mxGeometry relative="1" as="geometry" />
        </mxCell>
        <mxCell id="HmT_3yzTrvhzJx-XpZF0-10" value="&lt;font style=&quot;vertical-align: inherit;&quot;&gt;&lt;font style=&quot;vertical-align: inherit;&quot;&gt;PO&lt;/font&gt;&lt;/font&gt;" style="strokeWidth=2;html=1;shape=mxgraph.flowchart.multi-document;whiteSpace=wrap;" vertex="1" parent="1">
          <mxGeometry x="246" y="450" width="88" height="60" as="geometry" />
        </mxCell>
        <mxCell id="HmT_3yzTrvhzJx-XpZF0-11" style="edgeStyle=orthogonalEdgeStyle;rounded=0;orthogonalLoop=1;jettySize=auto;html=1;entryX=0.5;entryY=0;entryDx=0;entryDy=0;entryPerimeter=0;" edge="1" parent="1" source="HmT_3yzTrvhzJx-XpZF0-8" target="HmT_3yzTrvhzJx-XpZF0-10">
          <mxGeometry relative="1" as="geometry" />
        </mxCell>
        <mxCell id="HmT_3yzTrvhzJx-XpZF0-13" value="&lt;font style=&quot;vertical-align: inherit;&quot;&gt;&lt;font style=&quot;vertical-align: inherit;&quot;&gt;&lt;font style=&quot;vertical-align: inherit;&quot;&gt;&lt;font style=&quot;vertical-align: inherit;&quot;&gt;&lt;font style=&quot;vertical-align: inherit;&quot;&gt;&lt;font style=&quot;vertical-align: inherit;&quot;&gt;&lt;font style=&quot;vertical-align: inherit;&quot;&gt;&lt;font style=&quot;vertical-align: inherit;&quot;&gt;MEMBUAT SURAT JALAN&lt;br&gt;&lt;/font&gt;&lt;/font&gt;&lt;/font&gt;&lt;/font&gt;&lt;/font&gt;&lt;/font&gt;&lt;font style=&quot;vertical-align: inherit;&quot;&gt;&lt;font style=&quot;vertical-align: inherit;&quot;&gt;RITEL ATAU PT&lt;/font&gt;&lt;/font&gt;&lt;br&gt;&lt;/font&gt;&lt;/font&gt;" style="shape=parallelogram;perimeter=parallelogramPerimeter;whiteSpace=wrap;html=1;fixedSize=1;" vertex="1" parent="1">
          <mxGeometry x="230" y="554.5" width="130" height="60" as="geometry" />
        </mxCell>
        <mxCell id="HmT_3yzTrvhzJx-XpZF0-16" value="&lt;font style=&quot;vertical-align: inherit;&quot;&gt;&lt;font style=&quot;vertical-align: inherit;&quot;&gt;&lt;font style=&quot;vertical-align: inherit;&quot;&gt;&lt;font style=&quot;vertical-align: inherit;&quot;&gt;&lt;font style=&quot;vertical-align: inherit;&quot;&gt;&lt;font style=&quot;vertical-align: inherit;&quot;&gt;PT&lt;/font&gt;&lt;/font&gt;&lt;/font&gt;&lt;/font&gt;&lt;/font&gt;&lt;/font&gt;" style="strokeWidth=2;html=1;shape=mxgraph.flowchart.multi-document;whiteSpace=wrap;" vertex="1" parent="1">
          <mxGeometry x="370" y="680" width="88" height="60" as="geometry" />
        </mxCell>
        <mxCell id="HmT_3yzTrvhzJx-XpZF0-17" value="&lt;font style=&quot;vertical-align: inherit;&quot;&gt;&lt;font style=&quot;vertical-align: inherit;&quot;&gt;RITEL&lt;/font&gt;&lt;/font&gt;" style="strokeWidth=2;html=1;shape=mxgraph.flowchart.multi-document;whiteSpace=wrap;" vertex="1" parent="1">
          <mxGeometry x="132" y="680" width="88" height="60" as="geometry" />
        </mxCell>
        <mxCell id="HmT_3yzTrvhzJx-XpZF0-18" style="edgeStyle=orthogonalEdgeStyle;rounded=0;orthogonalLoop=1;jettySize=auto;html=1;entryX=0.5;entryY=0;entryDx=0;entryDy=0;entryPerimeter=0;" edge="1" parent="1" source="HmT_3yzTrvhzJx-XpZF0-13" target="HmT_3yzTrvhzJx-XpZF0-17">
          <mxGeometry relative="1" as="geometry" />
        </mxCell>
        <mxCell id="HmT_3yzTrvhzJx-XpZF0-19" style="edgeStyle=orthogonalEdgeStyle;rounded=0;orthogonalLoop=1;jettySize=auto;html=1;entryX=0.5;entryY=0;entryDx=0;entryDy=0;entryPerimeter=0;" edge="1" parent="1" source="HmT_3yzTrvhzJx-XpZF0-13" target="HmT_3yzTrvhzJx-XpZF0-16">
          <mxGeometry relative="1" as="geometry" />
        </mxCell>
        <mxCell id="HmT_3yzTrvhzJx-XpZF0-20" value="&lt;font style=&quot;vertical-align: inherit;&quot;&gt;&lt;font style=&quot;vertical-align: inherit;&quot;&gt;&lt;font style=&quot;vertical-align: inherit;&quot;&gt;&lt;font style=&quot;vertical-align: inherit;&quot;&gt;PRODUKSI&lt;/font&gt;&lt;/font&gt;&lt;br&gt;&lt;/font&gt;&lt;/font&gt;" style="ellipse;whiteSpace=wrap;html=1;" vertex="1" parent="1">
          <mxGeometry x="420" y="50" width="140" height="50" as="geometry" />
        </mxCell>
      </root>
    </mxGraphModel>
  </diagram>
  <diagram id="y0W_2fx3QoQwuocxLsvt" name="ALUR PRODUKSI">
    <mxGraphModel dx="934" dy="485" grid="1" gridSize="10" guides="1" tooltips="1" connect="1" arrows="1" fold="1" page="1" pageScale="1" pageWidth="827" pageHeight="1169" math="0" shadow="0">
      <root>
        <mxCell id="0" />
        <mxCell id="1" parent="0" />
        <mxCell id="x2q2vVkcjlAnqzTtKWqa-22" style="edgeStyle=orthogonalEdgeStyle;rounded=0;orthogonalLoop=1;jettySize=auto;html=1;" edge="1" parent="1" source="x2q2vVkcjlAnqzTtKWqa-1" target="x2q2vVkcjlAnqzTtKWqa-2">
          <mxGeometry relative="1" as="geometry" />
        </mxCell>
        <mxCell id="x2q2vVkcjlAnqzTtKWqa-1" value="SJA" style="rounded=1;whiteSpace=wrap;html=1;absoluteArcSize=1;arcSize=14;strokeWidth=2;" vertex="1" parent="1">
          <mxGeometry x="310" y="20" width="180" height="70" as="geometry" />
        </mxCell>
        <mxCell id="x2q2vVkcjlAnqzTtKWqa-23" style="edgeStyle=orthogonalEdgeStyle;rounded=0;orthogonalLoop=1;jettySize=auto;html=1;" edge="1" parent="1" source="x2q2vVkcjlAnqzTtKWqa-2" target="x2q2vVkcjlAnqzTtKWqa-3">
          <mxGeometry relative="1" as="geometry" />
        </mxCell>
        <mxCell id="x2q2vVkcjlAnqzTtKWqa-2" value="CUSTOMER" style="rounded=1;whiteSpace=wrap;html=1;absoluteArcSize=1;arcSize=14;strokeWidth=2;" vertex="1" parent="1">
          <mxGeometry x="345" y="120" width="110" height="40" as="geometry" />
        </mxCell>
        <mxCell id="x2q2vVkcjlAnqzTtKWqa-24" value="" style="edgeStyle=orthogonalEdgeStyle;rounded=0;orthogonalLoop=1;jettySize=auto;html=1;" edge="1" parent="1" source="x2q2vVkcjlAnqzTtKWqa-3" target="x2q2vVkcjlAnqzTtKWqa-5">
          <mxGeometry relative="1" as="geometry" />
        </mxCell>
        <mxCell id="x2q2vVkcjlAnqzTtKWqa-3" value="MARKETING" style="rounded=1;whiteSpace=wrap;html=1;absoluteArcSize=1;arcSize=14;strokeWidth=2;fillColor=#fff2cc;strokeColor=#d6b656;" vertex="1" parent="1">
          <mxGeometry x="345" y="190" width="110" height="40" as="geometry" />
        </mxCell>
        <mxCell id="x2q2vVkcjlAnqzTtKWqa-4" value="STOCK" style="rounded=1;whiteSpace=wrap;html=1;absoluteArcSize=1;arcSize=14;strokeWidth=2;fillColor=#fff2cc;strokeColor=#d6b656;" vertex="1" parent="1">
          <mxGeometry x="345" y="260" width="110" height="40" as="geometry" />
        </mxCell>
        <mxCell id="x2q2vVkcjlAnqzTtKWqa-25" value="" style="edgeStyle=orthogonalEdgeStyle;rounded=0;orthogonalLoop=1;jettySize=auto;html=1;" edge="1" parent="1" source="x2q2vVkcjlAnqzTtKWqa-5" target="x2q2vVkcjlAnqzTtKWqa-7">
          <mxGeometry relative="1" as="geometry" />
        </mxCell>
        <mxCell id="x2q2vVkcjlAnqzTtKWqa-5" value="PEMBUATAN PO" style="rounded=1;whiteSpace=wrap;html=1;absoluteArcSize=1;arcSize=14;strokeWidth=2;fillColor=#fff2cc;strokeColor=#d6b656;" vertex="1" parent="1">
          <mxGeometry x="345" y="330" width="110" height="40" as="geometry" />
        </mxCell>
        <mxCell id="x2q2vVkcjlAnqzTtKWqa-6" value="PEMBAYARAN" style="rounded=1;whiteSpace=wrap;html=1;absoluteArcSize=1;arcSize=14;strokeWidth=2;fillColor=#fff2cc;strokeColor=#d6b656;" vertex="1" parent="1">
          <mxGeometry x="345" y="400" width="110" height="40" as="geometry" />
        </mxCell>
        <mxCell id="x2q2vVkcjlAnqzTtKWqa-28" value="" style="edgeStyle=orthogonalEdgeStyle;rounded=0;orthogonalLoop=1;jettySize=auto;html=1;" edge="1" parent="1" source="x2q2vVkcjlAnqzTtKWqa-7" target="x2q2vVkcjlAnqzTtKWqa-12">
          <mxGeometry relative="1" as="geometry" />
        </mxCell>
        <mxCell id="x2q2vVkcjlAnqzTtKWqa-7" value="PENCATATAN UANG MASUK" style="rounded=1;whiteSpace=wrap;html=1;absoluteArcSize=1;arcSize=14;strokeWidth=2;fillColor=#d5e8d4;strokeColor=#82b366;" vertex="1" parent="1">
          <mxGeometry x="345" y="480" width="110" height="40" as="geometry" />
        </mxCell>
        <mxCell id="x2q2vVkcjlAnqzTtKWqa-10" value="KETERANGAN:&lt;br&gt;" style="rounded=1;whiteSpace=wrap;html=1;absoluteArcSize=1;arcSize=14;strokeWidth=2;" vertex="1" parent="1">
          <mxGeometry x="630" y="180" width="170" height="100" as="geometry" />
        </mxCell>
        <mxCell id="x2q2vVkcjlAnqzTtKWqa-11" value="PENJADWALAN" style="rounded=1;whiteSpace=wrap;html=1;absoluteArcSize=1;arcSize=14;strokeWidth=2;fillColor=#fff2cc;strokeColor=#d6b656;" vertex="1" parent="1">
          <mxGeometry x="345" y="560" width="110" height="40" as="geometry" />
        </mxCell>
        <mxCell id="x2q2vVkcjlAnqzTtKWqa-29" value="" style="edgeStyle=orthogonalEdgeStyle;rounded=0;orthogonalLoop=1;jettySize=auto;html=1;" edge="1" parent="1" source="x2q2vVkcjlAnqzTtKWqa-12" target="x2q2vVkcjlAnqzTtKWqa-15">
          <mxGeometry relative="1" as="geometry" />
        </mxCell>
        <mxCell id="x2q2vVkcjlAnqzTtKWqa-12" value="MEMO" style="rounded=1;whiteSpace=wrap;html=1;absoluteArcSize=1;arcSize=14;strokeWidth=2;fillColor=#fff2cc;strokeColor=#d6b656;" vertex="1" parent="1">
          <mxGeometry x="345" y="630" width="110" height="40" as="geometry" />
        </mxCell>
        <mxCell id="x2q2vVkcjlAnqzTtKWqa-50" value="" style="edgeStyle=orthogonalEdgeStyle;rounded=0;orthogonalLoop=1;jettySize=auto;html=1;" edge="1" parent="1" source="x2q2vVkcjlAnqzTtKWqa-13" target="x2q2vVkcjlAnqzTtKWqa-49">
          <mxGeometry relative="1" as="geometry" />
        </mxCell>
        <mxCell id="x2q2vVkcjlAnqzTtKWqa-58" value="" style="edgeStyle=orthogonalEdgeStyle;rounded=0;orthogonalLoop=1;jettySize=auto;html=1;" edge="1" parent="1" source="x2q2vVkcjlAnqzTtKWqa-13" target="x2q2vVkcjlAnqzTtKWqa-57">
          <mxGeometry relative="1" as="geometry" />
        </mxCell>
        <mxCell id="x2q2vVkcjlAnqzTtKWqa-13" value="DISPATCHER/ PENGIRIMAN" style="rounded=1;whiteSpace=wrap;html=1;absoluteArcSize=1;arcSize=14;strokeWidth=2;fillColor=#fff2cc;strokeColor=#d6b656;" vertex="1" parent="1">
          <mxGeometry x="250" y="840" width="110" height="40" as="geometry" />
        </mxCell>
        <mxCell id="x2q2vVkcjlAnqzTtKWqa-15" value="BPO (BATCHING PLNT OPERATOR)" style="rounded=1;whiteSpace=wrap;html=1;absoluteArcSize=1;arcSize=14;strokeWidth=2;fillColor=#fff2cc;strokeColor=#d6b656;" vertex="1" parent="1">
          <mxGeometry x="345" y="700" width="110" height="40" as="geometry" />
        </mxCell>
        <mxCell id="x2q2vVkcjlAnqzTtKWqa-16" value="SURAT JALAN" style="rounded=1;whiteSpace=wrap;html=1;absoluteArcSize=1;arcSize=14;strokeWidth=2;fillColor=#d5e8d4;strokeColor=#82b366;" vertex="1" parent="1">
          <mxGeometry x="440" y="770" width="110" height="40" as="geometry" />
        </mxCell>
        <mxCell id="x2q2vVkcjlAnqzTtKWqa-17" value="PRODUKSI" style="rounded=1;whiteSpace=wrap;html=1;absoluteArcSize=1;arcSize=14;strokeWidth=2;fillColor=#d5e8d4;strokeColor=#82b366;" vertex="1" parent="1">
          <mxGeometry x="250" y="770" width="110" height="40" as="geometry" />
        </mxCell>
        <mxCell id="x2q2vVkcjlAnqzTtKWqa-21" value="PEREKAPAN SURAT JALAN" style="rounded=1;whiteSpace=wrap;html=1;absoluteArcSize=1;arcSize=14;strokeWidth=2;fillColor=#fff2cc;strokeColor=#d6b656;" vertex="1" parent="1">
          <mxGeometry x="440" y="840" width="110" height="250" as="geometry" />
        </mxCell>
        <mxCell id="x2q2vVkcjlAnqzTtKWqa-43" value="" style="endArrow=none;html=1;rounded=0;" edge="1" parent="1" target="x2q2vVkcjlAnqzTtKWqa-16">
          <mxGeometry width="50" height="50" relative="1" as="geometry">
            <mxPoint x="360" y="850" as="sourcePoint" />
            <mxPoint x="410" y="820" as="targetPoint" />
          </mxGeometry>
        </mxCell>
        <mxCell id="x2q2vVkcjlAnqzTtKWqa-45" value="" style="endArrow=none;html=1;rounded=0;exitX=1;exitY=0.5;exitDx=0;exitDy=0;" edge="1" parent="1" source="x2q2vVkcjlAnqzTtKWqa-17" target="x2q2vVkcjlAnqzTtKWqa-16">
          <mxGeometry width="50" height="50" relative="1" as="geometry">
            <mxPoint x="370" y="820" as="sourcePoint" />
            <mxPoint x="420" y="770" as="targetPoint" />
          </mxGeometry>
        </mxCell>
        <mxCell id="x2q2vVkcjlAnqzTtKWqa-46" value="" style="endArrow=none;html=1;rounded=0;entryX=0.5;entryY=1;entryDx=0;entryDy=0;" edge="1" parent="1" target="x2q2vVkcjlAnqzTtKWqa-15">
          <mxGeometry width="50" height="50" relative="1" as="geometry">
            <mxPoint x="400" y="790" as="sourcePoint" />
            <mxPoint x="450" y="740" as="targetPoint" />
          </mxGeometry>
        </mxCell>
        <mxCell id="x2q2vVkcjlAnqzTtKWqa-47" value="" style="endArrow=none;html=1;rounded=0;exitX=0.5;exitY=0;exitDx=0;exitDy=0;" edge="1" parent="1" source="x2q2vVkcjlAnqzTtKWqa-13" target="x2q2vVkcjlAnqzTtKWqa-17">
          <mxGeometry width="50" height="50" relative="1" as="geometry">
            <mxPoint x="300" y="840" as="sourcePoint" />
            <mxPoint x="300" y="810" as="targetPoint" />
          </mxGeometry>
        </mxCell>
        <mxCell id="x2q2vVkcjlAnqzTtKWqa-48" value="" style="endArrow=none;html=1;rounded=0;" edge="1" parent="1">
          <mxGeometry width="50" height="50" relative="1" as="geometry">
            <mxPoint x="490" y="840" as="sourcePoint" />
            <mxPoint x="490" y="810" as="targetPoint" />
          </mxGeometry>
        </mxCell>
        <mxCell id="x2q2vVkcjlAnqzTtKWqa-53" value="" style="edgeStyle=orthogonalEdgeStyle;rounded=0;orthogonalLoop=1;jettySize=auto;html=1;" edge="1" parent="1" source="x2q2vVkcjlAnqzTtKWqa-49" target="x2q2vVkcjlAnqzTtKWqa-52">
          <mxGeometry relative="1" as="geometry" />
        </mxCell>
        <mxCell id="x2q2vVkcjlAnqzTtKWqa-49" value="DELIVERY" style="rounded=1;whiteSpace=wrap;html=1;absoluteArcSize=1;arcSize=14;strokeWidth=2;fillColor=#fff2cc;strokeColor=#d6b656;" vertex="1" parent="1">
          <mxGeometry x="250" y="910" width="110" height="40" as="geometry" />
        </mxCell>
        <mxCell id="x2q2vVkcjlAnqzTtKWqa-51" value="BONGKAR CUST" style="rounded=1;whiteSpace=wrap;html=1;absoluteArcSize=1;arcSize=14;strokeWidth=2;fillColor=#fff2cc;strokeColor=#d6b656;" vertex="1" parent="1">
          <mxGeometry x="250" y="980" width="110" height="40" as="geometry" />
        </mxCell>
        <mxCell id="x2q2vVkcjlAnqzTtKWqa-54" value="" style="edgeStyle=orthogonalEdgeStyle;rounded=0;orthogonalLoop=1;jettySize=auto;html=1;" edge="1" parent="1" source="x2q2vVkcjlAnqzTtKWqa-52" target="x2q2vVkcjlAnqzTtKWqa-21">
          <mxGeometry relative="1" as="geometry" />
        </mxCell>
        <mxCell id="x2q2vVkcjlAnqzTtKWqa-52" value="TTD SURAT JALAN" style="rounded=1;whiteSpace=wrap;html=1;absoluteArcSize=1;arcSize=14;strokeWidth=2;fillColor=#fff2cc;strokeColor=#d6b656;" vertex="1" parent="1">
          <mxGeometry x="250" y="1050" width="110" height="40" as="geometry" />
        </mxCell>
        <mxCell id="x2q2vVkcjlAnqzTtKWqa-57" value="REKAPAN SEMENTARA" style="rounded=1;whiteSpace=wrap;html=1;absoluteArcSize=1;arcSize=14;strokeWidth=2;fillColor=#d5e8d4;strokeColor=#82b366;" vertex="1" parent="1">
          <mxGeometry x="100" y="840" width="110" height="40" as="geometry" />
        </mxCell>
      </root>
    </mxGraphModel>
  </diagram>
</mxfile>
